<mxfile host="app.diagrams.net" modified="2023-05-22T23:16:32.131Z" agent="Mozilla/5.0 (Windows NT 10.0; Win64; x64) AppleWebKit/537.36 (KHTML, like Gecko) Chrome/113.0.0.0 Safari/537.36" etag="DDDI9j7b1v-z4nlPIh9u" version="21.3.2" type="device">
  <diagram id="WmYJeHkga9frG68i_qVs" name="Página-1">
    <mxGraphModel dx="733" dy="377" grid="1" gridSize="10" guides="1" tooltips="1" connect="1" arrows="1" fold="1" page="1" pageScale="1" pageWidth="827" pageHeight="1169" math="0" shadow="0">
      <root>
        <mxCell id="0" />
        <mxCell id="1" parent="0" />
        <mxCell id="cW0sEwzghKT2VLN7fFD9-8" style="edgeStyle=orthogonalEdgeStyle;rounded=0;orthogonalLoop=1;jettySize=auto;html=1;entryX=0;entryY=0.5;entryDx=0;entryDy=0;" parent="1" source="cW0sEwzghKT2VLN7fFD9-3" target="cW0sEwzghKT2VLN7fFD9-5" edge="1">
          <mxGeometry relative="1" as="geometry" />
        </mxCell>
        <mxCell id="cW0sEwzghKT2VLN7fFD9-10" style="edgeStyle=orthogonalEdgeStyle;rounded=0;orthogonalLoop=1;jettySize=auto;html=1;entryX=0;entryY=0.5;entryDx=0;entryDy=0;" parent="1" target="cW0sEwzghKT2VLN7fFD9-6" edge="1">
          <mxGeometry relative="1" as="geometry">
            <mxPoint x="225" y="570" as="sourcePoint" />
            <Array as="points">
              <mxPoint x="225" y="630" />
            </Array>
          </mxGeometry>
        </mxCell>
        <mxCell id="cW0sEwzghKT2VLN7fFD9-12" style="edgeStyle=orthogonalEdgeStyle;rounded=0;orthogonalLoop=1;jettySize=auto;html=1;entryX=0.5;entryY=1;entryDx=0;entryDy=0;" parent="1" target="cW0sEwzghKT2VLN7fFD9-11" edge="1">
          <mxGeometry relative="1" as="geometry">
            <mxPoint x="225" y="470" as="sourcePoint" />
          </mxGeometry>
        </mxCell>
        <mxCell id="cW0sEwzghKT2VLN7fFD9-3" value="contribuinte&lt;br&gt;" style="shape=umlActor;verticalLabelPosition=bottom;verticalAlign=top;html=1;outlineConnect=0;" parent="1" vertex="1">
          <mxGeometry x="210" y="480" width="30" height="60" as="geometry" />
        </mxCell>
        <mxCell id="cW0sEwzghKT2VLN7fFD9-7" style="edgeStyle=orthogonalEdgeStyle;rounded=0;orthogonalLoop=1;jettySize=auto;html=1;entryX=1;entryY=0.5;entryDx=0;entryDy=0;" parent="1" source="cW0sEwzghKT2VLN7fFD9-4" target="cW0sEwzghKT2VLN7fFD9-5" edge="1">
          <mxGeometry relative="1" as="geometry" />
        </mxCell>
        <mxCell id="cW0sEwzghKT2VLN7fFD9-9" style="edgeStyle=orthogonalEdgeStyle;rounded=0;orthogonalLoop=1;jettySize=auto;html=1;entryX=1;entryY=0.5;entryDx=0;entryDy=0;" parent="1" target="cW0sEwzghKT2VLN7fFD9-6" edge="1">
          <mxGeometry relative="1" as="geometry">
            <mxPoint x="685" y="570" as="sourcePoint" />
            <Array as="points">
              <mxPoint x="685" y="630" />
            </Array>
          </mxGeometry>
        </mxCell>
        <mxCell id="cW0sEwzghKT2VLN7fFD9-15" style="edgeStyle=orthogonalEdgeStyle;rounded=0;orthogonalLoop=1;jettySize=auto;html=1;entryX=0.5;entryY=1;entryDx=0;entryDy=0;" parent="1" target="cW0sEwzghKT2VLN7fFD9-14" edge="1">
          <mxGeometry relative="1" as="geometry">
            <mxPoint x="685" y="470" as="sourcePoint" />
          </mxGeometry>
        </mxCell>
        <mxCell id="cW0sEwzghKT2VLN7fFD9-4" value="ADM" style="shape=umlActor;verticalLabelPosition=bottom;verticalAlign=top;html=1;outlineConnect=0;" parent="1" vertex="1">
          <mxGeometry x="670" y="480" width="30" height="60" as="geometry" />
        </mxCell>
        <mxCell id="cW0sEwzghKT2VLN7fFD9-5" value="editar a atividade&amp;nbsp;" style="rounded=0;whiteSpace=wrap;html=1;" parent="1" vertex="1">
          <mxGeometry x="400" y="480" width="120" height="60" as="geometry" />
        </mxCell>
        <mxCell id="cW0sEwzghKT2VLN7fFD9-6" value="ver atividade / ver processo de conclusão&amp;nbsp;" style="rounded=0;whiteSpace=wrap;html=1;" parent="1" vertex="1">
          <mxGeometry x="400" y="600" width="120" height="60" as="geometry" />
        </mxCell>
        <mxCell id="cW0sEwzghKT2VLN7fFD9-11" value="postar atividade&amp;nbsp;" style="rounded=0;whiteSpace=wrap;html=1;" parent="1" vertex="1">
          <mxGeometry x="165" y="340" width="120" height="60" as="geometry" />
        </mxCell>
        <mxCell id="cW0sEwzghKT2VLN7fFD9-14" value="aprovar atividade&amp;nbsp;" style="rounded=0;whiteSpace=wrap;html=1;" parent="1" vertex="1">
          <mxGeometry x="625" y="340" width="120" height="60" as="geometry" />
        </mxCell>
        <mxCell id="cW0sEwzghKT2VLN7fFD9-17" style="edgeStyle=orthogonalEdgeStyle;rounded=0;orthogonalLoop=1;jettySize=auto;html=1;" parent="1" target="cW0sEwzghKT2VLN7fFD9-6" edge="1">
          <mxGeometry relative="1" as="geometry">
            <mxPoint x="460" y="700" as="sourcePoint" />
          </mxGeometry>
        </mxCell>
        <mxCell id="cW0sEwzghKT2VLN7fFD9-20" style="edgeStyle=orthogonalEdgeStyle;rounded=0;orthogonalLoop=1;jettySize=auto;html=1;entryX=1;entryY=0.5;entryDx=0;entryDy=0;" parent="1" source="cW0sEwzghKT2VLN7fFD9-16" target="cW0sEwzghKT2VLN7fFD9-18" edge="1">
          <mxGeometry relative="1" as="geometry" />
        </mxCell>
        <mxCell id="cW0sEwzghKT2VLN7fFD9-21" style="edgeStyle=orthogonalEdgeStyle;rounded=0;orthogonalLoop=1;jettySize=auto;html=1;" parent="1" source="cW0sEwzghKT2VLN7fFD9-16" target="cW0sEwzghKT2VLN7fFD9-19" edge="1">
          <mxGeometry relative="1" as="geometry" />
        </mxCell>
        <mxCell id="cW0sEwzghKT2VLN7fFD9-23" style="edgeStyle=orthogonalEdgeStyle;rounded=0;orthogonalLoop=1;jettySize=auto;html=1;entryX=0.5;entryY=0;entryDx=0;entryDy=0;" parent="1" target="cW0sEwzghKT2VLN7fFD9-22" edge="1">
          <mxGeometry relative="1" as="geometry">
            <mxPoint x="460" y="800" as="sourcePoint" />
          </mxGeometry>
        </mxCell>
        <mxCell id="cW0sEwzghKT2VLN7fFD9-16" value="usuário" style="shape=umlActor;verticalLabelPosition=bottom;verticalAlign=top;html=1;outlineConnect=0;" parent="1" vertex="1">
          <mxGeometry x="445" y="710" width="30" height="60" as="geometry" />
        </mxCell>
        <mxCell id="cW0sEwzghKT2VLN7fFD9-18" value="imprimir" style="rounded=0;whiteSpace=wrap;html=1;" parent="1" vertex="1">
          <mxGeometry x="210" y="710" width="120" height="60" as="geometry" />
        </mxCell>
        <mxCell id="cW0sEwzghKT2VLN7fFD9-19" value="dar sugestão de atividade" style="rounded=0;whiteSpace=wrap;html=1;" parent="1" vertex="1">
          <mxGeometry x="590" y="710" width="120" height="60" as="geometry" />
        </mxCell>
        <mxCell id="cW0sEwzghKT2VLN7fFD9-27" style="edgeStyle=orthogonalEdgeStyle;rounded=0;orthogonalLoop=1;jettySize=auto;html=1;entryX=0.5;entryY=0;entryDx=0;entryDy=0;" parent="1" source="cW0sEwzghKT2VLN7fFD9-22" target="cW0sEwzghKT2VLN7fFD9-26" edge="1">
          <mxGeometry relative="1" as="geometry" />
        </mxCell>
        <mxCell id="cW0sEwzghKT2VLN7fFD9-28" style="edgeStyle=orthogonalEdgeStyle;rounded=0;orthogonalLoop=1;jettySize=auto;html=1;entryX=0.5;entryY=0;entryDx=0;entryDy=0;" parent="1" source="cW0sEwzghKT2VLN7fFD9-22" target="cW0sEwzghKT2VLN7fFD9-25" edge="1">
          <mxGeometry relative="1" as="geometry" />
        </mxCell>
        <mxCell id="cW0sEwzghKT2VLN7fFD9-22" value="fazer login" style="rounded=0;whiteSpace=wrap;html=1;" parent="1" vertex="1">
          <mxGeometry x="400" y="840" width="120" height="60" as="geometry" />
        </mxCell>
        <mxCell id="cW0sEwzghKT2VLN7fFD9-24" value="dar feedback das atividades" style="rounded=0;whiteSpace=wrap;html=1;" parent="1" vertex="1">
          <mxGeometry x="330" y="950" width="120" height="60" as="geometry" />
        </mxCell>
        <mxCell id="cW0sEwzghKT2VLN7fFD9-25" value="virar contribuinte&amp;nbsp;" style="rounded=0;whiteSpace=wrap;html=1;" parent="1" vertex="1">
          <mxGeometry x="610" y="950" width="120" height="60" as="geometry" />
        </mxCell>
        <mxCell id="cW0sEwzghKT2VLN7fFD9-26" value="favoritar atividades" style="rounded=0;whiteSpace=wrap;html=1;" parent="1" vertex="1">
          <mxGeometry x="180" y="950" width="120" height="60" as="geometry" />
        </mxCell>
        <mxCell id="jCTYGXcmiMNvmYF3PFSj-1" value="criar pasta de atividade&amp;nbsp;" style="rounded=0;whiteSpace=wrap;html=1;" vertex="1" parent="1">
          <mxGeometry x="470" y="950" width="120" height="60" as="geometry" />
        </mxCell>
        <mxCell id="jCTYGXcmiMNvmYF3PFSj-3" value="" style="endArrow=classic;html=1;rounded=0;entryX=0.5;entryY=0;entryDx=0;entryDy=0;exitX=0.628;exitY=1.008;exitDx=0;exitDy=0;exitPerimeter=0;" edge="1" parent="1" source="cW0sEwzghKT2VLN7fFD9-22" target="jCTYGXcmiMNvmYF3PFSj-1">
          <mxGeometry width="50" height="50" relative="1" as="geometry">
            <mxPoint x="420" y="930" as="sourcePoint" />
            <mxPoint x="470" y="880" as="targetPoint" />
            <Array as="points">
              <mxPoint x="475" y="930" />
              <mxPoint x="500" y="930" />
              <mxPoint x="530" y="930" />
            </Array>
          </mxGeometry>
        </mxCell>
        <mxCell id="jCTYGXcmiMNvmYF3PFSj-4" value="" style="endArrow=classic;html=1;rounded=0;entryX=0.5;entryY=0;entryDx=0;entryDy=0;exitX=0.385;exitY=0.981;exitDx=0;exitDy=0;exitPerimeter=0;" edge="1" parent="1" source="cW0sEwzghKT2VLN7fFD9-22" target="cW0sEwzghKT2VLN7fFD9-24">
          <mxGeometry width="50" height="50" relative="1" as="geometry">
            <mxPoint x="420" y="930" as="sourcePoint" />
            <mxPoint x="470" y="880" as="targetPoint" />
            <Array as="points">
              <mxPoint x="446" y="930" />
              <mxPoint x="390" y="930" />
            </Array>
          </mxGeometry>
        </mxCell>
      </root>
    </mxGraphModel>
  </diagram>
</mxfile>
